<?xml version="1.0" standalone="no"?>
<!DOCTYPE svg PUBLIC "-//W3C//DTD SVG 20010904//EN"
 "http://www.w3.org/TR/2001/REC-SVG-20010904/DTD/svg10.dtd">
<svg version="1.0" xmlns="http://www.w3.org/2000/svg"
 width="1423.000000pt" height="1423.000000pt" viewBox="0 0 1423.000000 1423.000000"
 preserveAspectRatio="xMidYMid meet">
<metadata>
Created by potrace 1.14, written by Peter Selinger 2001-2017
</metadata>
<g transform="translate(0.000000,1423.000000) scale(0.100000,-0.100000)"
fill="#000000" stroke="none">
<path d="M7037 12953 c-4 -3 -7 -34 -7 -69 0 -49 4 -63 17 -68 9 -4 23 -1 30
7 14 14 20 107 9 126 -8 12 -39 15 -49 4z"/>
<path d="M6451 12896 c-14 -16 3 -116 21 -127 7 -4 21 -3 31 3 17 9 18 17 13
61 -10 72 -36 98 -65 63z"/>
<path d="M7622 12898 c-10 -14 -17 -44 -28 -118 -3 -24 -8 -48 -10 -52 -3 -4
-7 -34 -10 -66 -5 -49 -3 -60 10 -65 9 -4 22 -4 30 -1 12 5 35 97 52 214 3 25
7 52 9 60 3 18 -13 40 -30 40 -7 0 -17 -6 -23 -12z"/>
<path d="M5886 12745 c-14 -14 -12 -24 15 -97 32 -89 44 -108 65 -108 31 0 32
33 2 114 -40 109 -51 121 -82 91z"/>
<path d="M8194 12752 c-6 -4 -24 -44 -40 -88 -23 -67 -26 -84 -16 -97 23 -27
50 -8 68 47 9 28 23 63 30 77 11 22 11 29 -2 48 -16 23 -23 25 -40 13z"/>
<path d="M6506 12627 c-18 -13 -17 -23 29 -282 39 -219 76 -432 80 -455 3 -14
9 -50 15 -80 5 -30 12 -71 15 -90 3 -19 19 -109 35 -200 16 -91 32 -181 35
-200 3 -19 12 -69 20 -110 8 -41 16 -88 19 -105 2 -16 12 -68 20 -115 23 -125
26 -116 -56 -131 -40 -7 -77 -13 -82 -14 -9 0 -23 35 -111 280 -84 234 -196
540 -204 560 -5 11 -23 61 -41 110 -156 440 -157 443 -195 429 -23 -9 -19 -31
41 -195 31 -85 73 -201 94 -259 34 -95 148 -409 235 -645 117 -322 113 -303
83 -309 -7 -2 -20 -6 -28 -9 -58 -22 -115 -36 -118 -30 -4 13 -19 40 -251 441
-124 213 -288 498 -365 634 -83 146 -149 250 -160 254 -11 3 -25 0 -33 -9 -14
-14 -12 -21 17 -74 18 -32 41 -71 50 -88 9 -16 93 -160 185 -320 92 -159 200
-346 240 -415 39 -69 104 -181 143 -249 40 -69 72 -127 72 -130 0 -3 9 -17 20
-31 11 -14 20 -31 20 -37 0 -7 -35 -30 -77 -51 l-78 -38 -129 155 c-72 86
-132 158 -136 161 -3 3 -63 75 -134 160 -70 85 -138 166 -150 180 -26 30 -328
390 -359 428 -41 50 -85 92 -96 92 -6 0 -15 -9 -21 -21 -10 -18 -3 -30 51 -97
35 -42 66 -79 69 -82 5 -4 292 -345 337 -400 6 -8 125 -149 263 -313 l250
-298 -74 -51 c-41 -27 -78 -50 -81 -50 -6 1 -182 143 -285 232 -30 26 -98 83
-150 127 -262 218 -418 349 -445 373 -40 36 -61 42 -80 23 -23 -22 -14 -31
170 -185 88 -74 219 -183 290 -242 72 -60 146 -123 166 -140 19 -17 46 -40 60
-51 13 -11 67 -56 119 -99 52 -44 97 -81 99 -83 2 -1 -28 -34 -67 -71 l-71
-69 -113 65 c-62 35 -126 72 -143 82 -16 9 -160 92 -320 184 -159 92 -321 186
-360 209 -104 62 -141 77 -154 64 -28 -28 -9 -46 132 -128 78 -45 223 -129
322 -186 99 -57 187 -108 195 -113 8 -6 22 -13 30 -17 8 -4 90 -51 183 -105
92 -54 172 -98 178 -98 9 0 -34 -62 -67 -97 -7 -7 -22 -29 -35 -50 -13 -21
-26 -40 -29 -43 -24 -20 -146 -252 -175 -335 -10 -27 -22 -54 -27 -59 -4 -6
-8 -18 -8 -28 0 -24 -13 -23 -36 3 -26 30 -130 109 -142 109 -6 0 -12 4 -14 8
-1 5 -28 25 -58 45 -37 25 -55 44 -55 58 0 12 -7 25 -15 29 -48 24 -80 34
-125 35 -52 3 -61 4 -210 30 -209 37 -238 39 -243 11 -5 -24 8 -36 44 -42 16
-2 52 -9 79 -14 55 -11 91 -17 148 -26 20 -4 37 -9 37 -11 0 -3 -20 -26 -44
-52 -86 -89 -164 -206 -224 -334 -18 -37 -49 -87 -70 -110 -83 -91 -114 -138
-166 -249 -41 -88 -69 -132 -119 -188 -42 -46 -72 -90 -84 -123 -20 -56 -101
-151 -110 -129 -10 25 -112 135 -143 155 -17 11 -45 23 -63 26 -24 5 -38 18
-60 56 -83 143 -149 159 -324 78 -59 -28 -135 -56 -168 -64 -74 -16 -126 -47
-158 -95 -14 -19 -55 -60 -92 -91 -65 -53 -84 -78 -154 -203 -35 -60 -139
-175 -170 -185 -9 -3 -27 -21 -41 -40 -14 -19 -32 -35 -41 -35 -8 0 -49 12
-90 27 -76 27 -162 34 -224 19 -29 -7 -31 -6 -84 88 -93 165 -232 333 -330
399 -98 66 -193 81 -302 47 -41 -13 -80 -25 -87 -26 -25 -5 -22 -10 38 -75 53
-58 84 -99 156 -209 69 -105 221 -469 208 -499 -3 -9 -7 -222 -7 -473 l0 -458
-36 22 c-20 12 -42 28 -49 35 -7 7 -16 13 -20 13 -4 0 -19 10 -34 23 -14 12
-50 41 -80 64 -29 23 -105 95 -168 160 -120 123 -289 279 -375 348 -27 22 -52
42 -55 45 -51 51 -273 193 -384 246 -167 79 -291 98 -456 70 -19 -4 -66 -11
-105 -18 l-69 -10 24 -20 c14 -11 70 -52 125 -91 138 -98 407 -300 485 -365
195 -162 211 -181 300 -347 23 -44 55 -102 70 -130 15 -27 51 -95 80 -150 112
-213 145 -274 208 -385 35 -63 73 -127 83 -142 11 -14 19 -29 19 -33 0 -4 -33
-4 -72 -1 -79 8 -271 9 -303 2 -11 -2 -41 -7 -67 -10 -121 -16 -240 -72 -307
-145 -59 -64 -91 -148 -119 -318 -15 -89 -5 -257 23 -366 l25 -99 -38 -37
c-48 -45 -87 -103 -107 -161 -22 -61 -30 -194 -17 -272 7 -34 14 -79 17 -98
28 -201 144 -384 287 -451 33 -15 50 -31 59 -53 48 -121 107 -240 147 -299 14
-21 26 -52 28 -70 6 -78 48 -206 83 -256 16 -22 34 -72 47 -126 21 -90 87
-346 94 -362 5 -12 27 -31 48 -42 32 -16 203 -72 262 -86 8 -2 62 -15 120 -29
58 -14 123 -28 145 -32 22 -3 43 -8 47 -10 8 -5 229 -44 282 -49 23 -2 57 -7
76 -10 19 -2 75 -7 124 -10 49 -3 90 -6 92 -7 1 -2 -43 -75 -98 -163 -55 -88
-104 -171 -110 -185 -16 -43 -11 -142 12 -202 23 -62 86 -135 141 -163 19 -10
71 -44 117 -76 45 -33 84 -59 86 -59 1 0 44 -25 94 -55 80 -48 363 -195 376
-195 2 0 37 -15 78 -34 93 -43 299 -125 403 -161 44 -15 89 -31 100 -36 11 -5
97 -31 190 -59 94 -28 184 -55 200 -60 114 -35 629 -151 740 -166 16 -2 41 -6
55 -9 13 -2 42 -7 65 -10 22 -3 51 -8 65 -11 14 -2 40 -6 58 -9 18 -2 45 -6
60 -9 15 -3 47 -8 72 -11 25 -3 61 -8 80 -10 109 -14 181 -22 260 -30 36 -4
83 -8 105 -10 90 -9 264 -23 380 -30 33 -2 146 -6 250 -10 105 -3 201 -8 215
-10 14 -2 50 -7 80 -10 30 -4 62 -9 70 -10 8 -2 49 -6 90 -10 41 -4 86 -8 100
-10 32 -4 211 -15 315 -20 108 -5 567 -6 685 -1 127 5 297 16 340 21 19 2 67
7 105 10 71 6 98 9 194 21 29 3 68 8 85 9 36 4 75 10 206 31 52 8 109 17 125
20 17 3 37 7 45 9 8 3 31 7 50 9 60 8 288 56 435 92 77 19 150 37 162 40 36 7
385 111 433 129 25 9 52 18 60 20 59 14 474 176 630 246 239 108 535 262 755
393 66 40 135 78 153 86 44 17 97 81 112 134 13 47 9 147 -8 210 -13 49 -74
173 -119 244 -19 29 -54 92 -78 138 l-43 85 26 -5 c213 -44 622 -54 807 -20
52 9 113 52 202 142 54 55 94 87 107 87 17 0 21 6 22 35 0 24 15 58 45 105
178 277 201 322 201 407 1 50 4 62 23 74 13 8 35 34 50 56 16 23 55 76 88 117
116 146 178 254 193 337 3 15 14 34 25 42 38 26 97 89 123 131 82 129 131 391
103 543 -9 46 -78 241 -110 307 -49 103 -130 196 -215 248 l-43 26 8 66 c4 36
8 134 8 216 -1 123 -5 163 -22 222 -27 93 -82 174 -143 214 l-48 31 131 105
c153 122 366 333 452 448 172 231 576 632 665 660 20 6 22 11 16 54 l-6 46 55
29 c51 27 105 76 105 96 0 9 -51 -4 -135 -34 -38 -13 -40 -13 -48 6 -7 19 -13
20 -85 14 -43 -4 -90 -9 -103 -11 -13 -2 -42 -6 -64 -9 -208 -30 -441 -99
-615 -183 -94 -45 -262 -150 -310 -195 -40 -37 -119 -100 -215 -173 l-90 -67
-3 51 c-3 51 -9 60 -28 41 -6 -6 -8 12 -6 48 2 61 39 144 163 368 68 122 199
324 210 324 4 0 77 46 161 103 151 102 218 140 269 152 22 5 25 11 24 41 -2
29 3 37 26 50 24 12 49 41 49 57 0 3 -14 3 -30 2 -34 -3 -39 2 -42 39 l-2 26
-86 -5 c-164 -10 -271 -28 -394 -66 -99 -30 -168 -65 -260 -130 -52 -38 -83
-54 -87 -47 -4 6 -5 17 -2 24 6 17 -21 66 -58 103 -36 37 -165 110 -194 111
-12 1 8 15 47 35 73 38 84 48 65 63 -6 5 -118 40 -248 76 -163 46 -247 65
-270 61 -19 -3 -56 -7 -84 -9 -62 -6 -150 -15 -191 -21 -25 -4 -37 2 -60 26
-43 46 -81 62 -145 61 l-56 0 -21 47 c-11 26 -35 84 -52 129 -31 81 -41 94
-57 70 -4 -7 -20 -24 -35 -37 l-28 -24 -21 51 c-12 29 -25 52 -28 52 -7 0 -16
-10 -153 -160 -47 -52 -106 -116 -129 -142 l-44 -48 -145 46 c-266 84 -392
129 -393 139 0 6 69 54 154 108 85 54 154 104 154 110 0 7 -5 17 -12 22 -23
18 1 31 132 69 72 21 144 42 160 47 17 5 122 36 235 68 113 33 293 85 400 116
107 31 248 72 313 90 64 19 122 37 127 40 30 19 -1 36 -159 89 l-168 57 -99
-16 c-54 -9 -110 -18 -124 -20 -138 -22 -129 -22 -253 -1 -53 9 -119 14 -145
12 -131 -12 -185 -18 -200 -21 -10 -2 -48 -6 -84 -9 -37 -4 -75 -9 -86 -11
-10 -2 -43 -6 -72 -10 -29 -4 -60 -8 -69 -10 -9 -2 -44 -6 -76 -10 -33 -4 -67
-9 -75 -10 -94 -16 -96 -16 -172 14 -42 17 -82 31 -88 31 -7 0 -25 9 -40 20
-27 19 -28 22 -15 47 19 35 10 46 -23 29 -26 -13 -30 -12 -67 15 -21 16 -46
29 -54 29 -31 1 12 17 64 25 28 4 59 8 70 10 11 2 50 9 87 16 52 9 69 16 74
32 3 11 0 25 -7 32 -12 11 -31 10 -109 -5 -52 -10 -113 -21 -135 -24 -22 -4
-65 -11 -95 -17 -30 -6 -126 -23 -212 -38 l-158 -27 -58 60 c-54 56 -184 217
-179 222 1 1 85 33 187 69 221 80 229 85 195 118 -17 18 -26 16 -250 -67 -82
-30 -155 -56 -161 -58 -6 -2 -41 38 -79 87 -38 50 -82 103 -97 119 -16 15 -28
32 -26 37 2 5 95 62 208 127 179 103 205 121 205 142 0 17 -6 26 -20 28 -11 1
-116 -54 -235 -123 -176 -103 -220 -124 -240 -119 -14 4 -52 7 -86 7 l-61 0
-33 48 c-18 27 -41 56 -51 65 -28 25 -24 37 24 72 23 17 53 41 67 54 14 13 53
47 88 76 65 57 74 75 44 91 -22 12 -38 3 -127 -74 -33 -29 -71 -61 -85 -72
-14 -12 -38 -32 -55 -46 l-29 -25 -51 38 c-27 20 -66 40 -85 44 -114 25 -114
25 -137 3 -42 -39 -23 -9 45 71 87 103 123 146 325 386 92 110 167 205 167
212 0 7 -9 18 -19 24 -24 13 -36 2 -138 -120 -43 -52 -88 -106 -100 -120 -41
-48 -105 -125 -122 -145 -61 -75 -323 -387 -331 -395 -3 -3 -39 -45 -80 -95
-120 -144 -98 -134 -178 -84 -51 32 -68 47 -63 59 3 8 42 77 86 153 44 76 88
153 98 170 417 720 574 993 579 1008 7 19 -9 39 -32 39 -15 0 -73 -89 -164
-253 -13 -23 -47 -82 -76 -132 -29 -49 -64 -110 -77 -135 -14 -25 -38 -65 -53
-90 -25 -41 -197 -339 -360 -625 -35 -60 -64 -112 -66 -114 -5 -5 -154 60
-154 68 0 3 22 67 49 141 28 74 71 194 97 265 25 72 50 139 55 150 39 91 369
1021 367 1033 -5 24 -44 27 -56 5 -6 -10 -49 -126 -96 -258 -48 -132 -91 -249
-96 -260 -4 -11 -68 -184 -140 -385 -230 -638 -243 -671 -253 -672 -4 0 -41 8
-81 18 -71 16 -74 18 -69 43 2 14 11 62 18 106 8 44 23 130 34 190 11 61 22
126 25 145 3 19 12 71 20 115 9 44 18 96 21 115 3 19 10 60 16 90 6 30 12 66
14 80 2 14 14 77 25 140 11 63 22 124 24 135 2 11 13 78 26 149 19 108 20 130
9 137 -37 23 -51 5 -68 -91 -6 -36 -13 -75 -15 -86 -2 -12 -7 -39 -10 -60 -4
-22 -11 -61 -16 -89 -5 -27 -12 -66 -15 -85 -3 -19 -12 -71 -20 -115 -8 -44
-26 -145 -40 -225 -14 -80 -27 -156 -30 -170 -2 -14 -11 -63 -19 -110 -9 -47
-18 -96 -20 -110 -3 -14 -10 -52 -15 -85 -6 -33 -12 -69 -14 -80 -3 -11 -7
-41 -11 -67 -5 -30 -11 -45 -19 -42 -7 2 -43 6 -82 8 l-70 4 -1 768 c-2 728
-3 768 -20 781 -15 11 -20 11 -32 -1 -12 -12 -14 -137 -14 -780 l0 -766 -31
-1 c-18 0 -56 -2 -84 -5 -48 -3 -53 -1 -57 19 -10 47 -35 190 -41 237 -3 19
-10 55 -15 80 -5 25 -12 59 -14 75 -3 17 -12 71 -21 120 -8 50 -17 104 -20
120 -3 17 -12 64 -20 105 -7 41 -16 93 -20 115 -5 40 -21 129 -30 175 -3 14
-14 77 -25 140 -11 63 -22 126 -25 140 -3 14 -10 52 -15 85 -6 33 -12 71 -14
85 -3 14 -10 52 -15 85 -27 148 -31 163 -46 168 -7 3 -20 0 -29 -6z m3170
-2674 c-10 -10 -19 5 -10 18 6 11 8 11 12 0 2 -7 1 -15 -2 -18z m-66 4 c0 -7
-15 -37 -34 -66 l-34 -53 -18 29 c-10 15 -29 40 -43 56 -13 15 -21 27 -15 28
18 1 58 10 61 13 2 1 21 3 43 4 27 1 40 -2 40 -11z"/>
<path d="M5358 12499 c-24 -14 -24 -18 23 -98 32 -56 46 -71 64 -71 14 0 25 7
28 18 6 25 -72 163 -92 162 -3 0 -14 -5 -23 -11z"/>
<path d="M8718 12493 c-53 -65 -62 -118 -19 -118 18 0 30 12 53 51 26 48 27
53 13 68 -21 20 -28 20 -47 -1z"/>
<path d="M4866 12154 c-3 -9 -3 -22 1 -29 21 -36 206 -245 217 -245 8 0 19 7
26 15 11 13 9 21 -10 48 -33 45 -172 210 -185 219 -17 13 -43 9 -49 -8z"/>
<path d="M9176 12133 c-19 -21 -88 -103 -155 -183 -123 -147 -140 -182 -95
-188 16 -2 44 24 120 115 55 65 101 120 104 123 24 24 98 118 102 131 7 18 -9
39 -29 39 -7 0 -28 -17 -47 -37z"/>
<path d="M4463 11753 c-7 -2 -13 -14 -13 -25 0 -22 0 -22 103 -108 43 -36 91
-75 105 -88 32 -27 66 -25 70 4 2 17 -24 44 -118 123 -67 55 -125 101 -128
100 -4 0 -13 -3 -19 -6z"/>
<path d="M9513 11663 c-65 -54 -120 -100 -123 -103 -3 -3 -46 -41 -97 -83
-104 -88 -105 -89 -97 -111 10 -27 46 -18 98 26 28 24 60 50 71 60 92 76 235
197 255 215 14 13 28 23 32 23 4 0 10 9 13 20 6 20 -9 50 -26 50 -4 0 -61 -44
-126 -97z"/>
<path d="M4120 11266 c-7 -9 -10 -22 -7 -30 7 -17 13 -21 147 -98 52 -30 127
-74 167 -96 78 -46 94 -50 113 -26 20 23 -2 39 -201 153 -207 118 -202 116
-219 97z"/>
<path d="M9944 11264 c-15 -8 -44 -25 -64 -37 -19 -12 -51 -31 -71 -42 -266
-149 -284 -162 -243 -192 15 -11 24 -9 58 10 51 29 98 56 201 115 185 106 209
128 167 151 -13 7 -27 5 -48 -5z"/>
<path d="M3875 10733 c-32 -31 -12 -46 122 -93 74 -26 96 -30 107 -21 10 8 12
19 7 33 -5 15 -36 31 -114 58 -95 34 -109 36 -122 23z"/>
<path d="M10085 10696 c-107 -39 -141 -56 -143 -70 -6 -27 25 -48 50 -35 10 6
38 16 61 24 89 29 183 67 195 79 14 14 7 42 -11 49 -7 3 -75 -19 -152 -47z"/>
<path d="M4242 10597 c-12 -14 2 -57 18 -57 10 0 184 -61 297 -104 39 -15 328
-120 513 -187 58 -20 150 -54 205 -74 255 -94 265 -96 265 -51 0 15 -10 25
-32 34 -115 45 -1214 443 -1233 446 -13 3 -28 -1 -33 -7z"/>
<path d="M3719 10159 c-16 -31 4 -45 81 -58 36 -5 130 -22 210 -36 253 -45
240 -44 253 -24 20 32 1 46 -80 59 -43 8 -80 14 -83 15 -3 1 -25 5 -50 9 -25
5 -54 10 -65 12 -11 3 -33 6 -50 9 -16 2 -68 11 -115 20 -47 8 -86 15 -87 15
-1 0 -7 -10 -14 -21z"/>
<path d="M10333 10173 c-42 -5 -58 -25 -43 -53 10 -18 17 -20 53 -15 53 8 76
28 61 53 -12 19 -23 21 -71 15z"/>
<path d="M4415 9702 c-106 -102 -91 -96 -181 -66 -43 14 -88 28 -99 31 -70 16
-118 24 -179 29 l-69 4 24 -19 c13 -10 53 -35 89 -55 42 -23 58 -36 44 -36
-27 0 -37 -22 -20 -45 10 -14 29 -17 102 -17 63 0 108 -6 152 -20 62 -19 64
-20 78 -2 37 49 83 123 101 164 19 42 37 100 31 100 -2 0 -34 -31 -73 -68z"/>
<path d="M3690 9590 c-30 -7 -40 -47 -14 -57 22 -8 72 -8 107 1 28 7 39 42 15
51 -24 8 -83 11 -108 5z"/>
</g>
</svg>
